<?xml version="1.0" standalone="no"?>
<!DOCTYPE svg PUBLIC "-//W3C//DTD SVG 20010904//EN"
 "http://www.w3.org/TR/2001/REC-SVG-20010904/DTD/svg10.dtd">
<svg version="1.0" xmlns="http://www.w3.org/2000/svg"
 width="740.000000pt" height="740.000000pt" viewBox="0 0 740.000000 740.000000"
 preserveAspectRatio="xMidYMid meet">

<g transform="translate(0.000000,740.000000) scale(0.100000,-0.100000)"
fill="#000000" stroke="none">
<path d="M3600 5315 c-155 -44 -267 -176 -286 -340 l-7 -55 60 0 c60 0 85 -12
76 -36 -4 -10 -24 -14 -69 -14 -57 0 -64 -2 -64 -20 0 -18 7 -20 59 -20 36 0
63 -5 70 -13 18 -23 -9 -37 -71 -37 -51 0 -58 -2 -58 -20 0 -18 7 -20 64 -20
45 0 65 -4 69 -14 9 -24 -15 -36 -75 -36 -51 0 -58 -2 -58 -20 0 -18 7 -20 64
-20 67 0 86 -10 66 -35 -8 -10 -32 -15 -71 -15 -52 0 -59 -2 -59 -20 0 -17 8
-19 67 -22 42 -2 68 -8 71 -15 5 -16 -7 -20 -80 -28 l-58 -6 0 -73 c0 -183 79
-319 228 -389 61 -29 76 -32 162 -32 86 0 101 3 160 31 152 73 235 216 228
396 l-3 73 -65 5 c-49 4 -65 9 -65 20 0 12 15 16 68 18 59 3 67 5 67 22 0 18
-7 20 -59 20 -39 0 -63 5 -71 15 -20 25 -1 35 66 35 57 0 64 2 64 20 0 18 -7
20 -58 20 -60 0 -84 12 -75 36 4 10 24 14 69 14 57 0 64 2 64 20 0 18 -7 20
-59 20 -36 0 -63 5 -70 13 -18 23 9 37 71 37 51 0 58 2 58 20 0 18 -7 20 -64
20 -67 0 -86 10 -66 35 8 10 32 15 73 15 l60 0 -7 55 c-11 99 -43 164 -115
236 -50 49 -81 72 -126 89 -77 29 -173 35 -245 15z"/>
<path d="M3032 4473 c4 -170 8 -208 27 -268 36 -113 86 -192 176 -282 94 -92
203 -153 320 -178 37 -7 69 -15 70 -17 2 -2 -22 -87 -54 -188 l-57 -185 213
-3 c144 -2 213 -6 213 -13 0 -9 -38 -134 -168 -549 -5 -17 55 88 272 475 l145
260 -215 3 c-166 2 -215 5 -212 15 3 6 17 53 33 103 l27 91 62 17 c153 43 323
177 399 316 67 123 79 181 85 403 l4 197 -90 0 -90 0 -5 -182 c-4 -153 -8
-193 -26 -242 -31 -87 -62 -134 -128 -197 -200 -191 -491 -184 -683 17 -110
114 -140 213 -140 462 l0 142 -91 0 -91 0 4 -197z"/>
<path d="M2612 2503 c-18 -9 -42 -29 -54 -46 -26 -37 -36 -124 -18 -167 15
-36 74 -90 98 -89 13 0 13 2 -4 9 -35 14 -46 60 -42 165 3 87 5 99 27 116 13
10 36 19 51 19 15 0 38 -9 51 -19 22 -17 24 -29 27 -116 5 -116 -6 -147 -56
-168 -34 -14 -34 -15 -7 -10 71 12 125 80 125 155 0 123 -100 199 -198 151z"/>
<path d="M2955 2511 c-52 -23 -85 -85 -85 -158 0 -81 45 -142 115 -156 l30 -6
-33 15 c-44 20 -54 52 -50 165 2 78 7 101 22 118 35 39 98 22 121 -32 l14 -32
1 40 c0 34 -3 40 -22 42 -13 1 -39 5 -58 7 -19 3 -44 2 -55 -3z"/>
<path d="M4045 2511 c-52 -23 -85 -85 -85 -158 0 -81 45 -142 115 -156 l30 -6
-33 15 c-44 20 -54 52 -50 165 2 78 7 101 22 118 35 39 98 22 121 -32 l14 -32
1 40 c0 34 -3 40 -22 42 -13 1 -39 5 -58 7 -19 3 -44 2 -55 -3z"/>
<path d="M4377 2490 c-21 -50 -31 -89 -18 -70 8 12 11 11 17 -5 4 -11 13 -35
20 -54 20 -49 19 -51 -31 -51 l-44 0 15 42 c8 22 13 43 11 45 -2 2 -19 -38
-38 -89 -28 -76 -38 -93 -59 -99 -16 -5 -4 -7 35 -7 33 1 48 3 33 5 -32 5 -32
3 -16 54 11 39 11 39 64 39 l52 0 15 -44 15 -45 -26 -4 c-15 -2 9 -4 53 -4 44
0 68 2 53 4 -24 4 -30 16 -81 161 l-55 157 -15 -35z"/>
<path d="M4635 2508 c-31 -18 -44 -40 -45 -74 0 -43 32 -80 77 -89 52 -10 90
-31 98 -55 9 -28 -18 -66 -58 -85 -24 -11 -26 -13 -7 -9 71 16 107 85 77 149
-14 30 -25 36 -87 55 -76 23 -89 37 -72 75 23 49 97 45 131 -7 l21 -33 0 44
c0 37 -2 42 -14 32 -11 -9 -20 -9 -35 -2 -25 14 -61 13 -86 -1z"/>
<path d="M2216 2503 c15 -3 27 -19 39 -51 10 -26 36 -94 58 -152 47 -122 38
-129 107 77 38 112 43 122 68 126 15 2 0 4 -33 4 -33 0 -47 -2 -32 -4 17 -3
27 -9 24 -16 -2 -7 -19 -56 -37 -110 -17 -54 -33 -97 -35 -95 -2 2 -21 51 -43
110 l-39 107 26 4 c14 2 -8 4 -49 4 -41 0 -65 -2 -54 -4z"/>
<path d="M3239 2363 c-47 -127 -57 -148 -79 -154 -16 -5 -4 -7 35 -7 33 1 48
3 33 5 -32 5 -32 3 -16 54 11 39 11 39 64 39 l52 0 15 -44 15 -45 -26 -4 c-15
-2 7 -4 48 -4 41 0 65 2 54 4 -18 3 -31 30 -74 154 -29 82 -56 149 -60 149 -4
0 -31 -66 -61 -147z m65 3 c9 -27 16 -51 16 -53 0 -2 -20 -3 -44 -3 l-45 0 21
61 c11 33 24 57 28 52 4 -4 15 -30 24 -57z"/>
<path d="M3513 2503 l27 -4 0 -144 0 -144 -27 -4 c-16 -2 31 -5 103 -6 l132
-1 6 31 c12 63 7 77 -14 35 -26 -51 -34 -56 -97 -56 l-53 0 0 144 0 145 28 4
c15 2 -9 4 -53 4 -44 0 -68 -2 -52 -4z"/>
<path d="M4863 2503 l27 -4 0 -144 0 -144 -27 -4 c-16 -2 8 -4 52 -4 44 0 68
2 53 4 -28 4 -28 5 -28 79 l0 74 70 0 70 0 0 -74 c0 -74 0 -75 -27 -79 -16 -2
8 -4 52 -4 44 0 68 2 53 4 l-28 4 0 144 0 144 28 4 c15 2 -9 4 -53 4 -44 0
-68 -2 -52 -4 26 -4 27 -6 27 -69 l0 -64 -70 0 -70 0 0 64 c0 63 1 65 28 69
15 2 -9 4 -53 4 -44 0 -68 -2 -52 -4z"/>
<path d="M3800 2300 c0 -17 7 -20 50 -20 43 0 50 3 50 20 0 17 -7 20 -50 20
-43 0 -50 -3 -50 -20z"/>
<path d="M3085 2270 c-3 -10 -20 -31 -36 -45 -32 -26 -31 -32 2 -14 15 7 24 7
35 -2 12 -10 14 -4 14 35 0 49 -5 58 -15 26z"/>
<path d="M4175 2270 c-3 -10 -20 -31 -36 -45 -32 -26 -31 -32 2 -14 15 7 24 7
35 -2 12 -10 14 -4 14 35 0 49 -5 58 -15 26z"/>
<path d="M4590 2241 c0 -34 3 -41 13 -33 8 7 18 7 27 2 8 -6 22 -10 30 -9 8 0
3 6 -12 15 -15 8 -34 27 -42 42 l-15 27 -1 -44z"/>
</g>
</svg>
